<?xml version="1.0" encoding="UTF-8"?>
<svg id="Layer_1" data-name="Layer 1" xmlns="http://www.w3.org/2000/svg" viewBox="0 0 2985.8 3054.02">
  <defs>
    <style>
      .cls-1 {
        stroke: #000;
        stroke-linecap: round;
        stroke-miterlimit: 10;
        stroke-width: 10px;
        fill: #00000000;
      }
    </style>
  </defs>
  <path id="line-7" class="cls-1" d="M595.07,2324.25c4.95,10.77,15.95,17.77,24.95,24.77,16,12,33,20,42,38,1,2,1,5,3,7,1,3,2,5,2,8,2,17-27.07,24.2-25.07,40.2,1,9,30.07,26.8,27.07,35.8-4,8-9,15-14,23-8,16,14.83,27.46-.17,36.46-14,8-59,2-69,15-3,5-22.6,32.2-24.6,37.2-6,23,8.77,34.34,1.77,57.34-5,15-17.37,3.66-32.37,8.66-27,10-6.8,34.6-31.8,48.6-5,3-51.4,9.6-56.4,12.6-1,1-8.6,12.8-9.6,13.8-14,7-21.83,7.34-34.83,16.34-10,8-17,18-26,27-2,2-5,3-7,5-16,17-21,40-33,60-5,9-11,16-19,22-5,3-9,7-13,11-3,3-7,5-10,7l-6,6c-1,1-3,1-4,2-20,18-41,30-64,43-40,23-76,42-113,69-13,9-26,14-39,20-16,8-30,17-43,28"/>
  <path id="line-6" class="cls-1" d="M37.04,1862.45c33.98-.43,67.98-4.43,102.98-.43,32,4,63,13,95,17,31,4,61,7,92,11,24,13,17,45,9,67,0,2,1,4,3,6,15,12,31,21,48,26,11,4,26,9,36-1,4-3,24.28-17.24,28.28-14.24,11,8,5.72,30.24,13.72,41.24,7,10,1.88,20.31,7.88,30.31,5,8,18.12,14.69,16.12,23.69-6,18-35.36,45.03-18,53,21.89,10.05-2.7,39.63,3,60,1.7,6.09,22.93,6.11,29.93,9.11,10,4,8.9,24.77,18.9,28.77,20,8,37.17-.88,51.17,17.12,11,15,12,32,13,49,1,7,3,14,5.22,21.35"/>
  <path id="line-5" class="cls-1" d="M2043.02,1590.26c-3,8.76-8,16.76-8,26.76,0,14-4,30,4,43,5,9,12,17,20,24,5,4,10,5,16,6,16,0,33-4,47-15,3-2,6-3,10-2,17,4,32,16,36,33,11,8,21,26,36,16,13-8,31-13,42,2,2,2,5,3,7,5,6,4,13,7,20,9,12,2,24,0,36,1,14,2,60.76,8.42,68.3,1.85,8.84-7.21,19.19,1.33,27.74,4.31,13.42,4.11,25.65,8.96,35.55,19.44,2.48,2.62,3.76,5.99,6.01,9.59,20.24,5.67,39.19-5.37,58.75-10.12,5.32-.83,10.42-.69,15.51-.54,18.74,3.27,38.91,4.82,56.21-3.52,30.5-3.26,52.35,22.27,72.16,43.23,6.68,6.66,14.03,10.4,22.5,9.27,10.42-.69,19.78-5.72,30.42-7.38,12.61,12.13,32.16,7.38,47.9,5.86,5.43-.52,51.38-6.72,70.34-4.42,18.97,2.3,37.04,8.5,54.66,16.65,5.4,3.29,7.43,7.86,11.63,11.9,1.5,2.4,2.03,4.57,3.53,6.97s3.23,3.82,4.73,6.22c5.03,9.36,10.51,16.78,20.56,22.16,12.22,4.86,25.26,1.69,35.52-7.24,8.84-7.21,19.19,1.33,27.74,4.31"/>
  <path id="line-4" class="cls-1" d="M2718.22,322.64c7.07,5.56,16.9,4.39,23.36,10.74,5.67,5.73,9.93,11.63,14.99,18.15l3.93,3.09c8.92,21.01-7.66,37.23-17.83,53.4-10.17,16.17-23.49,29.87-38.38,42.33-5.28,3.48-10.28,3.36-15.73,5.44-2.81.34-5-.12-7.81.22s-4.83,1.29-7.64,1.62c-10.62.56-19.66,2.35-28.82,9.14-9.61,8.98-12.31,22.12-8.61,35.21,2.75,11.07-9.39,16.79-15.74,23.24-9.44,10.39-19.05,19.37-32.76,23.85-3.43,1.12-7.02.84-11.23,1.34-13.77,15.89-11.87,37.74-15.93,57.45-1.52,5.17-3.82,9.71-6.13,14.26-10.96,15.55-20.97,33.13-20.81,52.33-10.07,28.98-42.48,37.83-69.9,46.8-8.88,3.2-15.39,8.25-17.98,16.39-3.82,9.71-3.27,20.33-6.31,30.66-16.35,6.23-20.4,25.94-25.75,40.82-1.84,5.14-15.85,49.33-26.02,65.5-10.17,16.17-23.49,29.87-38.38,42.33-5.28,3.48-10.28,3.36-15.73,5.44-2.81.34-5-.12-7.81.22s-4.83,1.29-7.64,1.62c-10.62.56-19.66,2.35-28.82,9.14-9.61,8.98-12.31,22.12-8.61,35.21,2.75,11.07-9.39,16.79-15.74,23.24-9.44,10.39-19.05,19.37-32.76,23.85-3.43,1.12-7.02.84-11.23,1.34-13.77,15.89-11.87,37.74-15.93,57.45-1.52,5.17-3.82,9.71-6.13,14.26-10.96,15.55-20.97,33.13-20.81,52.33-10.07,28.98-42.48,37.83-69.9,46.8-8.88,3.2-15.39,8.25-17.98,16.39-3.82,9.71-3.27,20.33-6.31,30.66-16.35,6.23-20.4,25.94-25.75,40.82-4.28,11.9-5.74,23.47-5.64,36.28,2.3,13.26-5.41,26.28-16.59,34.03-5.28,3.48-11.68,3.53-17.64,1.39-12.07-5.68-26.62-8.21-39.37-1.71-9.33,5.39-15.96,15.44-19.78,25.15,4.77,10.11,12.18,18.49,16.95,28.6,3.81,8.09,9.65,15.23,14.87,23.15,1.91,4.04,3.2,8.88,3.7,13.09-.85,10.78-9.05,19.6-9.28,29.59,1.23,16.23,19.08,22.65,29.64,33.49,5.67,5.73,6.51,12.75,6.73,20.56-.96,15.78.1,30.61,4.75,45.72l.84,7.02c.67,5.62,3.53,11.68,9.93,11.63"/>
  <path id="line-3" class="cls-1" d="M713.67,787.68c7.23,1.36,8.31,9.76,7.18,15.78l-.19,4.85c1.6,15.63-.23,30.31-4.2,45.53-1.29,7.7-1.83,14.75,2.63,21.47,8.26,12.68,24.54,22.42,22.61,38.59-2.16,9.76-11.91,16.83-14.83,27.24-.32,4.23.01,9.22,1.1,13.56,3.59,8.78,7.94,16.91,10.12,25.59,2.73,10.84,8.38,20.49,11.1,31.33-5.63,8.79-14.08,17.37-24.27,20.86-13.77,3.92-27.55-1.38-38.3-9.28-5.43-3.25-11.72-4.43-17.57-2.04-12.47,5.44-22.54,16.73-22.85,30.18-2.37,12.58-6.04,23.65-12.54,34.51-8.12,13.57-15.9,32.13-33.15,35.08-4.98,9.55-6.48,20.07-12.11,28.87-4.11,7.49-11.48,11.19-20.81,12.61-28.63,3.51-62.14,5.93-77.62,32.42-3.56,18.88-16.77,34.19-30.53,47.33-3.14,4.02-6.28,8.03-8.77,12.81-7.79,18.56-10.15,40.36-26.72,53.29-4.23-.32-7.7-1.29-11.28-.85-14.32,1.75-25.48,8.71-36.75,17.07-7.48,5.11-20.49,8.38-19.93,19.77,1.1,13.56-4.09,25.93-15.25,32.88-10.3,4.89-19.52,4.91-30.04,3.4-2.82-.21-4.99.33-7.81.12s-4.88-1.08-7.7-1.29c-5.75.98-10.63-.1-16.48,2.3-17.02,9.35-32.73,20.22-45.84,34.11-13.11,13.9-32.51,26.61-27.81,48.95l3.26,3.79c3.7,7.37,6.74,13.98,11.2,20.7,5.11,7.48,14.98,8.22,20.84,15.05,1.97,11.49,3.28,22.23,1.02,33.41-1.61,6.81-3.94,13.19-6.33,19.48-1.49,3.92-4.64,6.92-8.53,8.49-.02,0-.04.02-.06.02-12.47,5.44-22.54,16.73-22.85,30.18-2.37,12.58-6.04,23.65-12.54,34.51-8.12,13.57-15.9,32.13-33.15,35.08-4.98,9.55-6.48,20.07-12.11,28.87-4.11,7.49-11.48,11.19-20.81,12.61-28.63,3.51-62.14,5.93-77.62,32.42-3.56,18.88-16.77,34.19-30.53,47.33-3.14,4.02-6.28,8.03-8.77,12.81"/>
  <path id="line-2" class="cls-1" d="M7,402.79c9.21.51,18.41,1.03,22.83,9.42,17.56,27.92,35.16,57.25,67.25,70.01,7.13,2.68,16.33,3.19,24.04-.51,9.81-4.45,14.5-16.57,24.31-21.02,4.21-1.5,7.16,4.09,10.05,6.86,8.72,11.13,13.32,28.01,27.58,33.37,5.72,2.71,6.23-6.5,10.41-9.41,6.29-3.67,11.43,5.42,17.81,5.99,8.45-1.59,11.07-11.55,18.77-15.25,17.15,8.13,41.36,16.1,40.45,40.17.22,10.58,6.58,18.55,13.85,24.63l7.33,4.74c6.16,2.69,9.44,8.77,15.34,12.06.87.49,2.23.1,3.59-.29,15.16-8.73,28.86-14.83,43.54-22.69,1.85-1.26,3.69-2.52,4.67-4.27,4.86-8.74,5.27-27.97,19.84-23.29,18.93,7.11,30.87,20.62,43.19,35.49,4.66,6.03,13.59,6.42,19.22,10.7,8.64,7.1,14.55,14.97,19.5,24.59,8.25,5.74,17.96,8.86,27.58,3.91,13.31-7.47,24.88-15.91,39.36-19.29,6.31-1.06,12.92,1.47,18.55,5.75,6.89,6.13,13.39,10.89,20.38,14.78,15.84-3.77,25.85-17.65,38.39-27.84,20.9-16.98,47.52-21.61,74.42-22.66,8.55-.96,15.84-3.77,23.12-6.58,2.72-.77,4.95-.68,8.06-.09s6.22,1.17,9.81.88c3.11.59,5.34.69,7.48,3.02,8.44,11.57-30.62,42.69-19.85,52.12,13.01,9.53,28.64,10.23,44.67,12.28,8.45,1.27,19.52,4,23.59,13.14-.88,9.81-6.62,18.06-6.63,28.36-6.22,9.12-21.79,23.12-32.18,25.35-2.72.77,2.58,6.29,2.96,17.23.39,11.3,43.44,2.98,40.65,13.88-2.87,11.22-6.94,22.85-12.71,32.94-5.75,10.06-15.96,15.34-25.04,21.96-10.15,7.4-19.76,15.73-26.54,26.43"/>
  <path id="line-1" class="cls-1" d="M2941.12,311.6c-9-3-16,3-23,9-9,9-17,17-19,30-10,8-24,11-36,10-12-1-24-5-36-6-8,0-15-4-23-6-16-5-33-12-48-3-10,12-20,23-31,35-4,5-7,10-8,16,0,1-1,2-2,3-11,6-20,14-32,18-7,1-13,2-20,1-12-2-22-5-34-7-28-4-54-7-83-12-8-2-16-4-24-5-22-1-45,2-67,2-8,3-13,11-20,17-3,2-7,1-10,1-10-3-19-7-30-5-9,2-19,4-22,13-5,15-17,28-33,29-35,3-63-17-92-36-5-4-11-3-17-1-8,3-15,7-23,8-10,1-21,1-31,0-3-1-5-3-7-5-14-14-27-28-44-39-24-15-50-21-77-23-9-1-18-2-27-5-8-4-10-13-11-21-2-25,8-47,13-72,1-6,0-12-2-17-6-12-15-21-19-34-2-6-3-12-1-17,6-12,17-21,18-35,0-6-3-11-5-17-7-27-10-53-8-80,0-3,2-6,3-9,3-14-1-30,8.09-41.6"/>
</svg>