<?xml version="1.0" encoding="UTF-8"?>
<svg id="squiggle" xmlns="http://www.w3.org/2000/svg" viewBox="0 0 1138.05 3406.7">
  <defs>
    <style>
      .cls-1 {
        stroke: #000;
        stroke-linecap: round;
        stroke-miterlimit: 10;
        stroke-width: 10px;
        fill: #00000000;
      }
    </style>
  </defs>
  <path id="line-1" class="cls-1" d="M591.22,7c2.46,2.39,3.77,5.8,4,8.79.04.49,0,.98-.05,1.47-.17,1.79-.19,3.99-.34,5.83-.05.61-.16,1.22-.33,1.82-6.81,24.28,2.04,37.82.21,62.57-1.19,26.9-52.07,28.02-45.05,54.17,4.68,23.38,54.6,11.65,57.53,36.37,3.49,29.55-17.68,52.75-6.55,56.24,46.49,14.58-6.62,21.58-10.52,42.21-6.94,36.71,82.61-13.39,84.33,47.52.41,14.4-3.52,36.7-18,41.4-3,.98,54.85,7.05,53.96,10.08-3.82,12.95-9.76,25.55-16.71,36.91-4.41,7.84-4.01,17.2-5.28,26.53-.58,4.23-3.99,7.55-8.23,8.05-.03,0-.05,0-.08,0-.62.08-1.25.1-1.87.06-15.01-1.06-30.89-4.35-45.04,2.08-2.12.97-3.81,2.72-4.7,4.87-4.65,11.24,3.1,28.83-2.47,38.97-.48.88-1.12,1.67-1.87,2.33-5.9,5.23-15.55,4.37-23,1.22-13.69-5.03-24.71-12.22-36.93-17.27-3.15-1.3-6.76-.86-9.47,1.21-11.57,8.83-22.64,17.08-33.95,27.83-11.96,12.5,59.15,29.27,61.76,43.73.21,1.19.17,2.4-.08,3.58-.4,1.87-.91,3.91-2.21,4.97-6.61,6.51-8.81,15.01-10.01,23.33-.04.29-.07.58-.09.87-.65,10.28,1.77,20.82,8.51,28.41,4.23,5.2,6.73,11.82,3.92,17.57-6.36,11.15-13.61,21.74-15.26,34.27-.65,4.95-4.9,8.74-9.88,8.4-4.44-.3-8.95-2.08-12.88-4.06-.38-.19-.77-.36-1.17-.51-11.95-4.22-24.21-5.46-36.77-3.71-.25.03-.49.08-.73.13-9.31,2.03-19.02,2.34-29.02,5.35-.62.19-1.22.43-1.79.73-2.64,1.4-5.92,2.45-6.02,6.23-.69,9.62.28,18.86-3.58,27.57-.61,1.37-1.56,2.57-2.75,3.49-9.77,7.51-20.21,12.01-29.92,19.78-.32.26-.66.49-1.01.7-2.54,1.52-5.08,2.98-7.82,3.59-6.83,1.52-14.32.12-21.91,2.84-5.42,2.2-9.34,6.9-12.14,12.37-.22.43-.41.89-.56,1.35-6.6,19.72-7.49,39.09-21.09,55.29-12.56,13.84-22.57,27.94-27.3,44.66-1.53,5.39-7.25,8.35-12.51,6.43-53.17-19.42-24.39,21.4-48.71,11.39-16.13-5.74-29.95,4.16-43.32,13.16-1.78,1.35-4.02,1.36-5.36,1.81-14.33-4.86-29.07.13-41.56,7.34l-8.04,2.72c-10.25,7.2-20.06,13.51-28.07,22.93-3.57,2.7-7.13,5.4-11.15,6.76-29.48,7.73-55.32,30.66-59.21,61.09,0,2.24-.42,5.37-.41,7.6.06,13.42,5.04,25.92,16.7,33.91,11.21,6.66,24.19,9.73,36.73,13.7,18.8,4.84,19.35,26.3,16.29,41.52-3.06,15.22,59.68,16.12,73.68,21.12,8,3,55.2-20.85,64.2-20.85,6,1,143,2.5,147,7.5,4,5,6,10,10,15,13,12,32,15,49,21,2,1,4,5,4,6,0,12-4,23-8,35-6,22-16,43-17,66,4,5,2,10,0,14-7,12-15,22-23,34-6,8-14,11-23,14-5,7-6,14-6,22,.34,5.15-22.5,15.3-48.36,13.97-12.98-.66-56.78-7.56-68.73-3.6-33.57,11.14-21.21,43.4-18.79,50.18l3,3c9,14,19,28,34,34,11,4,23,5,35,5,36-10,58,26,74,53,5,8,13,14,23,15,11,0,21-3,32,0,6,7,16,10,25,12,19,3,38,0,56,7,25,10,51-1,77-6,19-3,29,16,40,28,6,0,13-1,19,2,16,9,30,19,41,35,9,14,16,27,32,32,6,2,13,1,18-3,10-8,16-21,29-26,14-4,30-1,40,10,0,22,0,43,1,65,0,2,1,5,2,7,2,2,3,5,6,7,11,6,25,14,22,28-4,16-19,32-7,49,11,15,17,31,24,47,3,6,9,11,13,17,1,1,1,3,1,4-2,7-2,14,1,20,10,16,23,31,23,50-1,8-2,16-5,24-11,24-41,27-64,26-6,4-10,10-14,16-2,5-5,10-5,16s1,12,2,18c-5,7-12,13-20,17l-3,3c-18,10-36,20-56,18-13-1-27-11-40-2-6,5-9,11-15,16-16,13-36,12-55,16-6,1-13,2-19,4-1,0-3,2-4,2-11,2-21,6-32,4-7-1-13-4-20-3-15,2-25,13-39,19-7,8-13,17-20,25-19,4-37-2-56-5-7-1-14,1-21,2-44,0-27.67-10.18-72.67-1.18-26,5-11.32,3.73-37.32,7.73-30,4-24.33.07-54.33,3.07-23,14,31.44,33.62,39.44,55.62,1,2,0,4-1,6-9,8-19,15-30,20-16,7-34,17-52,9-11-6-21-19-34-16-5,7-5,15-6,23s-5,15-8,22c-2,6-2,13-3,20-3,9-11,14-17,21-6,10,5,19,9,28,6,9,15,18,12,29-6,5-13,9-14,17-1,10,4,18,6,28,1,7,4,14-1,20s-14,5-22,6c-14,1-15,17-20,27-3,4-8,6-13,7-11,2-22,0-32,5-7,3-12,8-16,15-7,15-8,31-9,47-1,7-4,13-5,20,0,3,0,6-1,9-2,11-10,17-18,24-12,9-24,16-36,26-11,9-18,22-20,36,4,13,18,18,25,30,2,5,0,10-4,15-8,9-20,15-23,27,4,7,8,14,13,21,3,5,5,11,2,17-3,5-6,10-5,16,0,7,8,9,14,10,18,3,37,0,54,8,11,5,15,18,22,28,3,4,6,8,8,12,2,5,3,11,2,16-3,11-6,22-5,34,1,6,2,15,8,15,14,2,31-3,38,11,4,7,5,15,7,23,1,4,2,9,6,12,16,12,37,8,55,14,33,11,64,25,97,36,3,1,6,4,8,3,10,0,18-7,28-10,13-3,26-2,39,0,9,1,17-3,26,0,5,1,10,2,15,4,25,10,50,24,79,17,1,0,3,1,4,1,8,0,16-2,24-3,8.07,0,16.13,0,24.86-2.33,35.48-.09,70.95-4.64,107.5-.47,32,4,63,13,95,17,31,4,61,7,92,11,24,13,17,45,9,67,0,2,1,4,3,6,15,12,31,21,48,26,11,4,26,9,36-1,4-3,24.28-17.24,28.28-14.24,11,8,5.72,30.24,13.72,41.24,7,10,1.88,20.31,7.88,30.31,5,8,18.12,14.69,16.12,23.69-6,18-35.36,45.03-18,53,21.89,10.05-2.7,39.63,3,60,1.7,6.09,22.93,6.11,29.93,9.11,10,4,8.9,24.77,18.9,28.77,20,8,37.17-.88,51.17,17.12,11,15,12,32,13,49,1,7,3,14,5.22,21.35"/>
</svg>