<?xml version="1.0" encoding="UTF-8"?>
<svg id="squiggle" class="squiggle" xmlns="http://www.w3.org/2000/svg" version="1.1" viewBox="0 0 2159.3 2914.6">
  <defs>
    <style>
      .cls-1 {
        stroke: #000;
        stroke-linecap: round;
        stroke-miterlimit: 10;
        stroke-width: 10px;
        fill: #00000000;
      }
    </style>
  </defs>
  <path id="line-5" data-name="Line 5" class="cls-1" d="M404.7,2272.6c9.5,3,19.5,6,28.5,11,1,1,3,1,4,1,12,5,21,14,25,26,2,9,1,18,4,27,2,8,1,16,5,24,9,16,28,21,39,33,17,19,12,46,14,69-4,15-13,27-23,41-3,5-7,10-14,12-12,3-23,10-28,21-6,17-5,34-11,51-2,5-4,9-7,13-6,8-16,10-24,13-33,12-62,29-90,48-11,14-27,24-33,42-4,9-8,17-14,26-6,8-14,14-22,21-1,1-3,1-4,2-3,3-7,6-10,9-25,18-49,31-76,45-17,10-32,21-49,33-10,7-21,9-32,15-13,8-24,19-38,26-13,6-24,15-36,24-2,1-5,1-7.2,2.9"/>
  <path id="line-4" data-name="Line 4" class="cls-1" d="M75.1,2033c26.1.6,52.1-4.4,79.1.6,36,8,69,13,105,17,7,0,15,0,22,2,5,2,8,7,10,12,2,9,2,20-3,29-3,5-1,11,4,14,16,9,31,21,51,17,4,0,7-4,11-3,18,9,31,25,40,42,3,6,2,13,0,19-4,12-11,23-12,35-1,17-6,37,8.4,49.7"/>
  <path id="line-3" data-name="Line 3" class="cls-1" d="M1844.7,1531.2c-.5,3.4.5,7.4-.5,10.4-9,22-14,46-5,69,4,10,12,18,21,26,14,11,32,5,47,1,7-3,13-8,19-12,16-1,32,9,39,24,2,5,4,9,7,13,2,2,5,2,7,4,7,6,15,15,24,10,12-8,31-16,41-2,12,9,25,16,40,17,10,0,20-1,30,1,12,1,23,7,36,9,1,0,2-1,3.1-.7"/>
  <path id="line-2" data-name="Line 2" class="cls-1" d="M999,938.3c-4.8,3.4-10.8,5.4-15.8,8.4l-3,3c-6,3-17,9-12,17,8,11,14,22,25,31,6,5,13,9,19,14,1,2,3,3,5,5,9,13,4,28,6,43s19,17,31,21c10,4,15,13,16,23,2,10,7,19,11,28,2,5,2,10,5,15,8,13,26,7,38,1,7-3,13-11,16-19,2-6,2-13,7-18,13-12,33-7,46,2,4,3,6,8,10,11,9,6,19,6,28,11,2,1,5,2,7,3,11,3,23,6,33-1,10,4,19,12,29,14,9,3,19-1,27-6,17-13,34-23,55-27,8-1,16-1,24,4,5,4,11,7,16,10,13,5,28,4,42,6,3,1,5,2,8,3,18,9,34,23,55,23,5-4,8-10,14-12,11-3,22-6,34-7,4-1,7-2,11-3,7-1,14,1,18,8,6,6,13,11,21,12,9,1,17-2,25-7,15-12,25-29,44-32,23-3,45-5,69-1,11,2,22,5,30,14,4,11,7,22,8,34,0,7-7,13-5,20,4,19,21,31,38,39,5,3,11,6,16,10,5,6,9,13,12,20,2,5,3,10,3,15s2,4,2,6c1,11-2,22-6,32-3,7-11,10-17,16s-6,7-6,11c0,6,6,10,9,15,1,3,5,8,0,9-12,4-18,16-20,27-1,8,2,15,1,23-1,4-3,8-3,12-3,11-4,22-6,33-1,6-1,12,1,18,3,7,8,14,16,16,7,7,8,17,8.7,26.7"/>
  <path id="line-1" data-name="Line 1" class="cls-1" d="M1812.7,7c7.5,10.6,7.5,24.6,7.5,37.6s3,7,3,11c0,17,1,34-1,51-2,8-1,16-4,23-3,8-7,16-7,24s-1,8,1,11c7,12,19,21,17,35,0,7-4,13-6,19-3,7-8,13-13,20-3,7-5,15-3,22,5,15,8,30,11,46,1,9,2,17,1,25-1,4-2,9-4,13-3,4-7,7-11,7-29,4-57,7-84,18-16,7-29,18-42,30-4,4-7,9-12,12-2,2-3,4-5,6-6,7-16,4-25,5-8,0-17,0-25-3-5-3-11-6-17-6-7-1-13,2-19,6s-12,8-17,13c-6,5-14,7-21,10-16,6-32,12-50,8-14-3-26-13-28-27-12-20-38-14-57-9-2,0-5,0-7-1-8-6-11-16-21-18-4,0-8,0-12,1-20,2-38-4-58,0-29,5-55,9-83,11-8,1-14,5-22,6-16,2-31,5-47,4-8-1-15-4-21-10-4-3-10-4-14-7-6-6-7-15-12-21-10-11-19-21-29-33-6-6-15-5-23-4-17,3-33,10-50,12-11,2-21,4-32,6-15,2-36,0-41-16-4-13-16-21-26-30-2-1-5-1-7-3-4-2-8-2-12-1-11,4-21,9-33,10-20,1-41,3-60-5-8-3-13-10-17-17-4-9,0-19-1-28-1-6-7-7-12-6-11,3-22,5-33,7-4,1-8,0-12-1-1-1-2-3-2-4,0-4,2-8,1-12-2-6-10-4-15-6-1-1-3-1-3-2-1-7,1-14-1-21-12-9-28-10-43-10-11,5-19,15-31,17-11,1-21-1-31-4-7-2-12-8-19-10h-6c-8,3-14,7-23,7s-19,6-25,14-7,18-3,27c3,6-4,9-8,13-4,2-7,4-11,6-9,6-15,13-25,17-8,2-16-1-24-1-6-1-10,5-11,11-1,11,1,21,2,31,1,7,7,12,9,18,3,11-1,23,0,34,0,1,0,3,1,4,3,5,7,10,10,15,3,8,0,17-5,23-7,7-15,11-24,15-9,5-17,12-20,22-3,9,0,18,3,27,2,8-3,14-10,17-18,8-37,11-53,23-13,10-24,21-31,36-1,2-3,5-5,7-12,11-25,23-26,40,4,11,10,22,13,33s2,22-2,32c-4,14-12,26-10,41,1,3,2,6,6,7,8,1,16,3,24,6h4c11-7,16-18,24-27,1-1,3,0,4,1,7,16,24,22,39,29,19,7,38,10,58,9,3,0,5-2,7-3,18-12,37-19,57-18.2"/>
</svg>